<svg xmlns="http://www.w3.org/2000/svg" viewBox="0 0 111.84 191.21"><defs><style>.a{fill:#fff;}</style></defs><path class="a" d="M53,87.89a1.32,1.32,0,0,1-1.29,1.28H28.5a1.32,1.32,0,0,1-1.29-1.28V25.14a1.11,1.11,0,0,1,.39-.87,1.29,1.29,0,0,1,.9-.36h5.86a1.08,1.08,0,0,1,1.22,1.23V80.81H51.74a1.27,1.27,0,0,1,.9.38,1.24,1.24,0,0,1,.39.9Z"/><path class="a" d="M83.53,76.11a11.75,11.75,0,0,1-.83,4.63,13.08,13.08,0,0,1-2.87,4.54,11.87,11.87,0,0,1-4.6,2.93.05.05,0,0,1-.06.06,11.05,11.05,0,0,1-3.86.78,2.41,2.41,0,0,1-.71.06H69.31a12.88,12.88,0,0,1-6.63-2.61,12.46,12.46,0,0,1-4.18-5.69,11.62,11.62,0,0,1-.84-4.64V62.66a1.33,1.33,0,0,1,.35-.91,1.17,1.17,0,0,1,.87-.38h5.86a1.27,1.27,0,0,1,.9.38,1.24,1.24,0,0,1,.39.91V76.17a4.67,4.67,0,0,0,3.73,4.57h.84a4.61,4.61,0,0,0,4.57-4.63V32.22H58.88a1.14,1.14,0,0,1-.87-.39,1.32,1.32,0,0,1-.35-.9V25.14a1.33,1.33,0,0,1,.35-.91,1.17,1.17,0,0,1,.87-.38H82.31a1.17,1.17,0,0,1,.87.38,1.28,1.28,0,0,1,.35.91Z"/><path class="a" d="M49.48,105.77a14,14,0,0,1,2.06,3.76,12.39,12.39,0,0,1,.78,4.35v40.54a12.11,12.11,0,0,1-.78,4.32,14.24,14.24,0,0,1-2.06,3.73,13.28,13.28,0,0,1-4.4,3.57,12.45,12.45,0,0,1-5.7,1.32A12.63,12.63,0,0,1,33.65,166a13.13,13.13,0,0,1-4.44-3.57,14.54,14.54,0,0,1-2.06-3.73,12.33,12.33,0,0,1-.77-4.32V113.88a12.62,12.62,0,0,1,.77-4.35,14.24,14.24,0,0,1,2.06-3.76,13.16,13.16,0,0,1,15.87-3.54A13,13,0,0,1,49.48,105.77ZM44,113.88a4.61,4.61,0,0,0-4.57-4.57,4.46,4.46,0,0,0-3.28,1.35,4.39,4.39,0,0,0-1.35,3.22v40.54a4.39,4.39,0,0,0,1.35,3.22A4.46,4.46,0,0,0,39.38,159,4.61,4.61,0,0,0,44,154.42Z"/><path class="a" d="M85.47,118.54a1.11,1.11,0,0,1-1.23,1.09H78.39a1.33,1.33,0,0,1-.91-.35,1.17,1.17,0,0,1-.38-.87v-4.53a4.54,4.54,0,0,0-1.32-3.25,4.46,4.46,0,0,0-6.47,0A4.49,4.49,0,0,0,68,113.88v9.55a4.48,4.48,0,0,0,1.35,3.28,4.39,4.39,0,0,0,3.22,1.35,11.4,11.4,0,0,1,4.57.84,12.59,12.59,0,0,1,5,3.35,11.87,11.87,0,0,1,2.51,3.92,12.7,12.7,0,0,1,.91,4.83v13.42a12.37,12.37,0,0,1-2.35,7.47,13.19,13.19,0,0,1-6,4.63,15.93,15.93,0,0,1-2.22.62,12.66,12.66,0,0,1-4.7,0,15.93,15.93,0,0,1-2.22-.62,13.13,13.13,0,0,1-6-4.63,12.31,12.31,0,0,1-2.35-7.47V142.63a1.08,1.08,0,0,1,1.22-1.23h5.86a1.29,1.29,0,0,1,.9.36,1.11,1.11,0,0,1,.39.87v11.79a4.58,4.58,0,0,0,7.82,3.22,4.44,4.44,0,0,0,1.32-3.22V141a4.56,4.56,0,0,0-1.32-3.25,4.32,4.32,0,0,0-3.25-1.39,11.41,11.41,0,0,1-4.57-.83,11.07,11.07,0,0,1-4.89-3.28,13.4,13.4,0,0,1-2.55-4,12.59,12.59,0,0,1-.93-4.83v-9.55a12.33,12.33,0,0,1,2.35-7.47,13.2,13.2,0,0,1,6-4.63,12.85,12.85,0,0,1,9.14,0,13.25,13.25,0,0,1,6,4.63,12.39,12.39,0,0,1,2.35,7.47Z"/><path class="a" d="M110.84,191.21H1a1,1,0,0,1-1-1V1A1,1,0,0,1,1,0H110.84a1,1,0,0,1,1,1V190.21A1,1,0,0,1,110.84,191.21ZM9.37,182.84h93.1a1,1,0,0,0,1-1V9.37a1,1,0,0,0-1-1H9.37a1,1,0,0,0-1,1V181.84A1,1,0,0,0,9.37,182.84Z"/></svg>