<?xml version="1.0" encoding="UTF-8" standalone="no"?>
<svg
   xmlns:dc="http://purl.org/dc/elements/1.1/"
   xmlns:cc="http://creativecommons.org/ns#"
   xmlns:rdf="http://www.w3.org/1999/02/22-rdf-syntax-ns#"
   xmlns:svg="http://www.w3.org/2000/svg"
   xmlns="http://www.w3.org/2000/svg"
   id="svg8"
   version="1.1"
   viewBox="0 0 210 297"
   height="297mm"
   width="210mm">
  <defs
     id="defs2">
    <style
       id="style3713">.a{fill:#fff;}</style>
  </defs>
  <metadata
     id="metadata5">
    <rdf:RDF>
      <cc:Work
         rdf:about="">
        <dc:format>image/svg+xml</dc:format>
        <dc:type
           rdf:resource="http://purl.org/dc/dcmitype/StillImage" />
        <dc:title></dc:title>
      </cc:Work>
    </rdf:RDF>
  </metadata>
  <g
     id="layer1">
    <g
       transform="matrix(0.26458333,0,0,0.26458333,14.686645,15.436653)"
       id="g3739">
      <path
         style="fill:#ffffff"
         class="a"
         d="m 53,87.89 a 1.32,1.32 0 0 1 -1.29,1.28 H 28.5 A 1.32,1.32 0 0 1 27.21,87.89 V 25.14 a 1.11,1.11 0 0 1 0.39,-0.87 1.29,1.29 0 0 1 0.9,-0.36 h 5.86 a 1.08,1.08 0 0 1 1.22,1.23 v 55.67 h 16.16 a 1.27,1.27 0 0 1 0.9,0.38 1.24,1.24 0 0 1 0.39,0.9 z"
         id="path3717" />
      <path
         style="fill:#ffffff"
         class="a"
         d="m 83.53,76.11 a 11.75,11.75 0 0 1 -0.83,4.63 13.08,13.08 0 0 1 -2.87,4.54 11.87,11.87 0 0 1 -4.6,2.93 0.05,0.05 0 0 1 -0.06,0.06 11.05,11.05 0 0 1 -3.86,0.78 2.41,2.41 0 0 1 -0.71,0.06 H 69.31 A 12.88,12.88 0 0 1 62.68,86.5 12.46,12.46 0 0 1 58.5,80.81 11.62,11.62 0 0 1 57.66,76.17 V 62.66 a 1.33,1.33 0 0 1 0.35,-0.91 1.17,1.17 0 0 1 0.87,-0.38 h 5.86 a 1.27,1.27 0 0 1 0.9,0.38 1.24,1.24 0 0 1 0.39,0.91 v 13.51 a 4.67,4.67 0 0 0 3.73,4.57 h 0.84 a 4.61,4.61 0 0 0 4.57,-4.63 V 32.22 H 58.88 a 1.14,1.14 0 0 1 -0.87,-0.39 1.32,1.32 0 0 1 -0.35,-0.9 v -5.79 a 1.33,1.33 0 0 1 0.35,-0.91 1.17,1.17 0 0 1 0.87,-0.38 h 23.43 a 1.17,1.17 0 0 1 0.87,0.38 1.28,1.28 0 0 1 0.35,0.91 z"
         id="path3719" />
      <path
         style="fill:#ffffff"
         class="a"
         d="m 49.48,105.77 a 14,14 0 0 1 2.06,3.76 12.39,12.39 0 0 1 0.78,4.35 v 40.54 a 12.11,12.11 0 0 1 -0.78,4.32 14.24,14.24 0 0 1 -2.06,3.73 13.28,13.28 0 0 1 -4.4,3.57 12.45,12.45 0 0 1 -5.7,1.32 12.63,12.63 0 0 1 -5.73,-1.36 13.13,13.13 0 0 1 -4.44,-3.57 14.54,14.54 0 0 1 -2.06,-3.73 12.33,12.33 0 0 1 -0.77,-4.32 v -40.5 a 12.62,12.62 0 0 1 0.77,-4.35 14.24,14.24 0 0 1 2.06,-3.76 13.16,13.16 0 0 1 15.87,-3.54 13,13 0 0 1 4.4,3.54 z M 44,113.88 a 4.61,4.61 0 0 0 -4.57,-4.57 4.46,4.46 0 0 0 -3.28,1.35 4.39,4.39 0 0 0 -1.35,3.22 v 40.54 a 4.39,4.39 0 0 0 1.35,3.22 4.46,4.46 0 0 0 3.23,1.36 4.61,4.61 0 0 0 4.62,-4.58 z"
         id="path3721" />
      <path
         style="fill:#ffffff"
         class="a"
         d="m 85.47,118.54 a 1.11,1.11 0 0 1 -1.23,1.09 h -5.85 a 1.33,1.33 0 0 1 -0.91,-0.35 1.17,1.17 0 0 1 -0.38,-0.87 v -4.53 a 4.54,4.54 0 0 0 -1.32,-3.25 4.46,4.46 0 0 0 -6.47,0 4.49,4.49 0 0 0 -1.31,3.25 v 9.55 a 4.48,4.48 0 0 0 1.35,3.28 4.39,4.39 0 0 0 3.22,1.35 11.4,11.4 0 0 1 4.57,0.84 12.59,12.59 0 0 1 5,3.35 11.87,11.87 0 0 1 2.51,3.92 12.7,12.7 0 0 1 0.91,4.83 v 13.42 a 12.37,12.37 0 0 1 -2.35,7.47 13.19,13.19 0 0 1 -6,4.63 15.93,15.93 0 0 1 -2.22,0.62 12.66,12.66 0 0 1 -4.7,0 15.93,15.93 0 0 1 -2.22,-0.62 13.13,13.13 0 0 1 -6,-4.63 12.31,12.31 0 0 1 -2.35,-7.47 v -11.79 a 1.08,1.08 0 0 1 1.22,-1.23 h 5.86 a 1.29,1.29 0 0 1 0.9,0.36 1.11,1.11 0 0 1 0.39,0.87 v 11.79 a 4.58,4.58 0 0 0 7.82,3.22 4.44,4.44 0 0 0 1.32,-3.22 V 141 a 4.56,4.56 0 0 0 -1.32,-3.25 4.32,4.32 0 0 0 -3.25,-1.39 11.41,11.41 0 0 1 -4.57,-0.83 11.07,11.07 0 0 1 -4.89,-3.28 13.4,13.4 0 0 1 -2.55,-4 12.59,12.59 0 0 1 -0.93,-4.83 v -9.55 a 12.33,12.33 0 0 1 2.35,-7.47 13.2,13.2 0 0 1 6,-4.63 12.85,12.85 0 0 1 9.14,0 13.25,13.25 0 0 1 6,4.63 12.39,12.39 0 0 1 2.35,7.47 z"
         id="path3723" />
      <path
         style="fill:#ffffff"
         class="a"
         d="M 110.84,191.21 H 1 a 1,1 0 0 1 -1,-1 V 1 A 1,1 0 0 1 1,0 h 109.84 a 1,1 0 0 1 1,1 v 189.21 a 1,1 0 0 1 -1,1 z M 9.37,182.84 h 93.1 a 1,1 0 0 0 1,-1 V 9.37 a 1,1 0 0 0 -1,-1 H 9.37 a 1,1 0 0 0 -1,1 v 172.47 a 1,1 0 0 0 1,1 z"
         id="path3725" />
    </g>
  </g>
</svg>
